<mxfile host="app.diagrams.net" modified="2021-06-06T13:27:24.352Z" agent="5.0 (Windows NT 10.0; Win64; x64) AppleWebKit/537.36 (KHTML, like Gecko) Chrome/91.0.4472.77 Safari/537.36" etag="0buFKY7GjuEVBsylt_GA" version="14.7.6" type="github">
  <diagram id="pvPfpFlzpVbjaPhK2XxU" name="Page-1">
    <mxGraphModel dx="1242" dy="1863" grid="1" gridSize="10" guides="1" tooltips="1" connect="1" arrows="1" fold="1" page="1" pageScale="1" pageWidth="827" pageHeight="1169" math="0" shadow="0">
      <root>
        <mxCell id="0" />
        <mxCell id="1" parent="0" />
        <mxCell id="x74-upUkUyzwfxTrmrzB-4" value="&quot;Kuka&quot; модуль" style="swimlane;fontStyle=2;align=center;verticalAlign=top;childLayout=stackLayout;horizontal=1;startSize=26;horizontalStack=0;resizeParent=1;resizeLast=0;collapsible=1;marginBottom=0;rounded=0;shadow=0;strokeWidth=1;fontSize=14;" parent="1" vertex="1">
          <mxGeometry x="470" y="50" width="170" height="80" as="geometry">
            <mxRectangle x="230" y="140" width="160" height="26" as="alternateBounds" />
          </mxGeometry>
        </mxCell>
        <mxCell id="x74-upUkUyzwfxTrmrzB-5" value="topic_coordinate" style="text;align=left;verticalAlign=top;spacingLeft=4;spacingRight=4;overflow=hidden;rotatable=0;points=[[0,0.5],[1,0.5]];portConstraint=eastwest;fontSize=14;" parent="x74-upUkUyzwfxTrmrzB-4" vertex="1">
          <mxGeometry y="26" width="170" height="26" as="geometry" />
        </mxCell>
        <mxCell id="x74-upUkUyzwfxTrmrzB-6" value="service_server_command" style="text;align=left;verticalAlign=top;spacingLeft=4;spacingRight=4;overflow=hidden;rotatable=0;points=[[0,0.5],[1,0.5]];portConstraint=eastwest;rounded=0;shadow=0;html=0;fontSize=14;" parent="x74-upUkUyzwfxTrmrzB-4" vertex="1">
          <mxGeometry y="52" width="170" height="26" as="geometry" />
        </mxCell>
        <mxCell id="x74-upUkUyzwfxTrmrzB-10" value="&quot;Mitsubishi&quot; модуль" style="swimlane;fontStyle=2;align=center;verticalAlign=top;childLayout=stackLayout;horizontal=1;startSize=26;horizontalStack=0;resizeParent=1;resizeLast=0;collapsible=1;marginBottom=0;rounded=0;shadow=0;strokeWidth=1;fontSize=14;" parent="1" vertex="1">
          <mxGeometry x="470" y="320" width="170" height="110" as="geometry">
            <mxRectangle x="230" y="140" width="160" height="26" as="alternateBounds" />
          </mxGeometry>
        </mxCell>
        <mxCell id="x74-upUkUyzwfxTrmrzB-11" value="topic_coordinate" style="text;align=left;verticalAlign=top;spacingLeft=4;spacingRight=4;overflow=hidden;rotatable=0;points=[[0,0.5],[1,0.5]];portConstraint=eastwest;fontSize=14;" parent="x74-upUkUyzwfxTrmrzB-10" vertex="1">
          <mxGeometry y="26" width="170" height="26" as="geometry" />
        </mxCell>
        <mxCell id="x74-upUkUyzwfxTrmrzB-12" value="service_server_command" style="text;align=left;verticalAlign=top;spacingLeft=4;spacingRight=4;overflow=hidden;rotatable=0;points=[[0,0.5],[1,0.5]];portConstraint=eastwest;rounded=0;shadow=0;html=0;fontSize=14;" parent="x74-upUkUyzwfxTrmrzB-10" vertex="1">
          <mxGeometry y="52" width="170" height="26" as="geometry" />
        </mxCell>
        <mxCell id="x74-upUkUyzwfxTrmrzB-13" value="service_server_coord" style="text;align=left;verticalAlign=top;spacingLeft=4;spacingRight=4;overflow=hidden;rotatable=0;points=[[0,0.5],[1,0.5]];portConstraint=eastwest;rounded=0;shadow=0;html=0;fontSize=14;" parent="x74-upUkUyzwfxTrmrzB-10" vertex="1">
          <mxGeometry y="78" width="170" height="26" as="geometry" />
        </mxCell>
        <mxCell id="x74-upUkUyzwfxTrmrzB-14" value="Сканирующий модуль" style="swimlane;fontStyle=2;align=center;verticalAlign=top;childLayout=stackLayout;horizontal=1;startSize=26;horizontalStack=0;resizeParent=1;resizeLast=0;collapsible=1;marginBottom=0;rounded=0;shadow=0;strokeWidth=1;fontSize=14;" parent="1" vertex="1">
          <mxGeometry x="160" y="300" width="160" height="130" as="geometry">
            <mxRectangle x="230" y="140" width="160" height="26" as="alternateBounds" />
          </mxGeometry>
        </mxCell>
        <mxCell id="x74-upUkUyzwfxTrmrzB-15" value="HMI_server_action" style="text;align=left;verticalAlign=top;spacingLeft=4;spacingRight=4;overflow=hidden;rotatable=0;points=[[0,0.5],[1,0.5]];portConstraint=eastwest;fontSize=14;" parent="x74-upUkUyzwfxTrmrzB-14" vertex="1">
          <mxGeometry y="26" width="160" height="26" as="geometry" />
        </mxCell>
        <mxCell id="x74-upUkUyzwfxTrmrzB-16" value="topic_status" style="text;align=left;verticalAlign=top;spacingLeft=4;spacingRight=4;overflow=hidden;rotatable=0;points=[[0,0.5],[1,0.5]];portConstraint=eastwest;rounded=0;shadow=0;html=0;fontSize=14;" parent="x74-upUkUyzwfxTrmrzB-14" vertex="1">
          <mxGeometry y="52" width="160" height="26" as="geometry" />
        </mxCell>
        <mxCell id="x74-upUkUyzwfxTrmrzB-17" value="service_client_comand" style="text;align=left;verticalAlign=top;spacingLeft=4;spacingRight=4;overflow=hidden;rotatable=0;points=[[0,0.5],[1,0.5]];portConstraint=eastwest;rounded=0;shadow=0;html=0;fontSize=14;" parent="x74-upUkUyzwfxTrmrzB-14" vertex="1">
          <mxGeometry y="78" width="160" height="26" as="geometry" />
        </mxCell>
        <mxCell id="x74-upUkUyzwfxTrmrzB-18" value="service_client_coord" style="text;align=left;verticalAlign=top;spacingLeft=4;spacingRight=4;overflow=hidden;rotatable=0;points=[[0,0.5],[1,0.5]];portConstraint=eastwest;rounded=0;shadow=0;html=0;fontSize=14;" parent="x74-upUkUyzwfxTrmrzB-14" vertex="1">
          <mxGeometry y="104" width="160" height="26" as="geometry" />
        </mxCell>
        <mxCell id="x74-upUkUyzwfxTrmrzB-19" value="HMI модуль" style="swimlane;fontStyle=2;align=center;verticalAlign=top;childLayout=stackLayout;horizontal=1;startSize=26;horizontalStack=0;resizeParent=1;resizeLast=0;collapsible=1;marginBottom=0;rounded=0;shadow=0;strokeWidth=1;fontSize=14;" parent="1" vertex="1">
          <mxGeometry x="150" y="50" width="180" height="156" as="geometry">
            <mxRectangle x="230" y="140" width="160" height="26" as="alternateBounds" />
          </mxGeometry>
        </mxCell>
        <mxCell id="x74-upUkUyzwfxTrmrzB-20" value="scan_client_action" style="text;align=left;verticalAlign=top;spacingLeft=4;spacingRight=4;overflow=hidden;rotatable=0;points=[[0,0.5],[1,0.5]];portConstraint=eastwest;fontSize=14;" parent="x74-upUkUyzwfxTrmrzB-19" vertex="1">
          <mxGeometry y="26" width="180" height="26" as="geometry" />
        </mxCell>
        <mxCell id="x74-upUkUyzwfxTrmrzB-22" value="sub_coordinate kuka" style="text;align=left;verticalAlign=top;spacingLeft=4;spacingRight=4;overflow=hidden;rotatable=0;points=[[0,0.5],[1,0.5]];portConstraint=eastwest;rounded=0;shadow=0;html=0;fontSize=14;" parent="x74-upUkUyzwfxTrmrzB-19" vertex="1">
          <mxGeometry y="52" width="180" height="26" as="geometry" />
        </mxCell>
        <mxCell id="x74-upUkUyzwfxTrmrzB-21" value="sub_coordinate mitsubishi" style="text;align=left;verticalAlign=top;spacingLeft=4;spacingRight=4;overflow=hidden;rotatable=0;points=[[0,0.5],[1,0.5]];portConstraint=eastwest;rounded=0;shadow=0;html=0;fontSize=14;" parent="x74-upUkUyzwfxTrmrzB-19" vertex="1">
          <mxGeometry y="78" width="180" height="26" as="geometry" />
        </mxCell>
        <mxCell id="x74-upUkUyzwfxTrmrzB-23" value="service_client_command" style="text;align=left;verticalAlign=top;spacingLeft=4;spacingRight=4;overflow=hidden;rotatable=0;points=[[0,0.5],[1,0.5]];portConstraint=eastwest;rounded=0;shadow=0;html=0;fontSize=14;" parent="x74-upUkUyzwfxTrmrzB-19" vertex="1">
          <mxGeometry y="104" width="180" height="26" as="geometry" />
        </mxCell>
        <mxCell id="x74-upUkUyzwfxTrmrzB-24" value="sub_status" style="text;align=left;verticalAlign=top;spacingLeft=4;spacingRight=4;overflow=hidden;rotatable=0;points=[[0,0.5],[1,0.5]];portConstraint=eastwest;rounded=0;shadow=0;html=0;fontSize=14;" parent="x74-upUkUyzwfxTrmrzB-19" vertex="1">
          <mxGeometry y="130" width="180" height="26" as="geometry" />
        </mxCell>
        <mxCell id="x74-upUkUyzwfxTrmrzB-25" style="edgeStyle=orthogonalEdgeStyle;rounded=0;orthogonalLoop=1;jettySize=auto;html=1;exitX=0;exitY=0.5;exitDx=0;exitDy=0;entryX=0;entryY=0.5;entryDx=0;entryDy=0;startArrow=classic;startFill=1;fontSize=14;" parent="1" source="x74-upUkUyzwfxTrmrzB-15" target="x74-upUkUyzwfxTrmrzB-20" edge="1">
          <mxGeometry relative="1" as="geometry">
            <Array as="points">
              <mxPoint x="110" y="339" />
              <mxPoint x="110" y="89" />
            </Array>
          </mxGeometry>
        </mxCell>
        <mxCell id="x74-upUkUyzwfxTrmrzB-26" style="edgeStyle=orthogonalEdgeStyle;rounded=0;orthogonalLoop=1;jettySize=auto;html=1;entryX=0;entryY=0.5;entryDx=0;entryDy=0;startArrow=none;startFill=0;fontSize=14;" parent="1" source="x74-upUkUyzwfxTrmrzB-16" target="x74-upUkUyzwfxTrmrzB-24" edge="1">
          <mxGeometry relative="1" as="geometry" />
        </mxCell>
        <mxCell id="x74-upUkUyzwfxTrmrzB-27" style="edgeStyle=orthogonalEdgeStyle;rounded=0;orthogonalLoop=1;jettySize=auto;html=1;exitX=0;exitY=0.5;exitDx=0;exitDy=0;startArrow=classic;startFill=1;fontSize=14;" parent="1" source="x74-upUkUyzwfxTrmrzB-12" target="x74-upUkUyzwfxTrmrzB-17" edge="1">
          <mxGeometry relative="1" as="geometry">
            <Array as="points">
              <mxPoint x="440" y="385" />
              <mxPoint x="440" y="391" />
            </Array>
          </mxGeometry>
        </mxCell>
        <mxCell id="x74-upUkUyzwfxTrmrzB-28" style="edgeStyle=orthogonalEdgeStyle;rounded=0;orthogonalLoop=1;jettySize=auto;html=1;startArrow=classic;startFill=1;exitX=0;exitY=0.5;exitDx=0;exitDy=0;fontSize=14;" parent="1" source="x74-upUkUyzwfxTrmrzB-13" target="x74-upUkUyzwfxTrmrzB-18" edge="1">
          <mxGeometry relative="1" as="geometry">
            <Array as="points">
              <mxPoint x="340" y="411" />
              <mxPoint x="340" y="417" />
            </Array>
            <mxPoint x="380" y="331" as="sourcePoint" />
          </mxGeometry>
        </mxCell>
        <mxCell id="x74-upUkUyzwfxTrmrzB-29" style="edgeStyle=orthogonalEdgeStyle;rounded=0;orthogonalLoop=1;jettySize=auto;html=1;exitX=0;exitY=0.5;exitDx=0;exitDy=0;startArrow=none;startFill=0;entryX=1;entryY=0.5;entryDx=0;entryDy=0;fontSize=14;" parent="1" source="x74-upUkUyzwfxTrmrzB-11" target="x74-upUkUyzwfxTrmrzB-21" edge="1">
          <mxGeometry relative="1" as="geometry">
            <mxPoint x="370" y="170" as="targetPoint" />
            <Array as="points">
              <mxPoint x="360" y="359" />
              <mxPoint x="360" y="141" />
            </Array>
          </mxGeometry>
        </mxCell>
        <mxCell id="x74-upUkUyzwfxTrmrzB-30" style="edgeStyle=orthogonalEdgeStyle;rounded=0;orthogonalLoop=1;jettySize=auto;html=1;startArrow=none;startFill=0;fontSize=14;" parent="1" source="x74-upUkUyzwfxTrmrzB-5" target="x74-upUkUyzwfxTrmrzB-22" edge="1">
          <mxGeometry relative="1" as="geometry" />
        </mxCell>
        <mxCell id="x74-upUkUyzwfxTrmrzB-31" style="edgeStyle=orthogonalEdgeStyle;rounded=0;orthogonalLoop=1;jettySize=auto;html=1;startArrow=classic;startFill=1;fontSize=14;" parent="1" source="x74-upUkUyzwfxTrmrzB-6" target="x74-upUkUyzwfxTrmrzB-23" edge="1">
          <mxGeometry relative="1" as="geometry">
            <Array as="points">
              <mxPoint x="430" y="115" />
              <mxPoint x="430" y="170" />
            </Array>
          </mxGeometry>
        </mxCell>
        <mxCell id="K3sZLC655sDqHfrd9MnO-2" style="edgeStyle=none;rounded=0;html=1;labelBackgroundColor=none;startArrow=none;startFill=0;startSize=5;endArrow=oval;endFill=0;endSize=5;jettySize=auto;orthogonalLoop=1;strokeWidth=1;fontFamily=Verdana;fontSize=14;dashed=1;exitX=0.117;exitY=1.003;exitDx=0;exitDy=0;exitPerimeter=0;" parent="1" source="K3sZLC655sDqHfrd9MnO-3" edge="1">
          <mxGeometry relative="1" as="geometry">
            <mxPoint x="110" y="90" as="targetPoint" />
          </mxGeometry>
        </mxCell>
        <mxCell id="K3sZLC655sDqHfrd9MnO-3" value="&lt;span style=&quot;font-family: helvetica; font-size: 14px;&quot;&gt;Команда &quot;сканировать&quot; с указанием области сканирования&lt;/span&gt;&lt;br style=&quot;font-family: helvetica; font-size: 14px;&quot;&gt;&lt;span style=&quot;font-family: helvetica; font-size: 14px;&quot;&gt;-----------------------------------&lt;/span&gt;&lt;br style=&quot;font-family: helvetica; font-size: 14px;&quot;&gt;&lt;span style=&quot;font-family: helvetica; font-size: 14px;&quot;&gt;Статус операции&lt;/span&gt;&lt;br style=&quot;font-family: helvetica; font-size: 14px;&quot;&gt;&lt;span style=&quot;font-family: helvetica; font-size: 14px;&quot;&gt;-----------------------------------&lt;/span&gt;&lt;br style=&quot;font-family: helvetica; font-size: 14px;&quot;&gt;&lt;span style=&quot;font-family: helvetica; font-size: 14px;&quot;&gt;Модель (набор вершин и треугольников)&lt;/span&gt;" style="shape=note;whiteSpace=wrap;html=1;rounded=0;shadow=0;comic=0;labelBackgroundColor=none;strokeWidth=1;fontFamily=Verdana;fontSize=14;align=center;size=23;" parent="1" vertex="1">
          <mxGeometry x="100" y="-130" width="215" height="152" as="geometry" />
        </mxCell>
        <mxCell id="K3sZLC655sDqHfrd9MnO-4" value="&lt;font face=&quot;helvetica&quot; style=&quot;font-size: 14px;&quot;&gt;Статус состояния модуля&lt;/font&gt;" style="shape=note;whiteSpace=wrap;html=1;rounded=0;shadow=0;comic=0;labelBackgroundColor=none;strokeWidth=1;fontFamily=Verdana;fontSize=14;align=center;size=11;" parent="1" vertex="1">
          <mxGeometry x="140" y="470" width="150" height="50" as="geometry" />
        </mxCell>
        <mxCell id="K3sZLC655sDqHfrd9MnO-6" style="edgeStyle=none;rounded=0;html=1;labelBackgroundColor=none;startArrow=none;startFill=0;startSize=5;endArrow=oval;endFill=0;endSize=5;jettySize=auto;orthogonalLoop=1;strokeWidth=1;fontFamily=Verdana;fontSize=14;dashed=1;exitX=0;exitY=0;exitDx=0;exitDy=0;exitPerimeter=0;" parent="1" source="K3sZLC655sDqHfrd9MnO-4" edge="1">
          <mxGeometry relative="1" as="geometry">
            <mxPoint x="130" y="360" as="targetPoint" />
            <mxPoint x="60" y="270.0002898550725" as="sourcePoint" />
          </mxGeometry>
        </mxCell>
        <mxCell id="K3sZLC655sDqHfrd9MnO-7" value="&lt;font face=&quot;helvetica&quot; style=&quot;font-size: 14px;&quot;&gt;Положения роботов&lt;/font&gt;" style="shape=note;whiteSpace=wrap;html=1;rounded=0;shadow=0;comic=0;labelBackgroundColor=none;strokeWidth=1;fontFamily=Verdana;fontSize=14;align=center;size=16;" parent="1" vertex="1">
          <mxGeometry x="482.5" y="172" width="135" height="50" as="geometry" />
        </mxCell>
        <mxCell id="K3sZLC655sDqHfrd9MnO-8" style="edgeStyle=none;rounded=0;html=1;labelBackgroundColor=none;startArrow=none;startFill=0;startSize=5;endArrow=oval;endFill=0;endSize=5;jettySize=auto;orthogonalLoop=1;strokeWidth=1;fontFamily=Verdana;fontSize=14;dashed=1;exitX=0;exitY=1;exitDx=0;exitDy=0;exitPerimeter=0;" parent="1" source="K3sZLC655sDqHfrd9MnO-7" edge="1">
          <mxGeometry relative="1" as="geometry">
            <mxPoint x="360" y="260" as="targetPoint" />
            <mxPoint x="130" y="430.0002898550725" as="sourcePoint" />
          </mxGeometry>
        </mxCell>
        <mxCell id="K3sZLC655sDqHfrd9MnO-9" style="edgeStyle=none;rounded=0;html=1;labelBackgroundColor=none;startArrow=none;startFill=0;startSize=5;endArrow=oval;endFill=0;endSize=5;jettySize=auto;orthogonalLoop=1;strokeWidth=1;fontFamily=Verdana;fontSize=14;dashed=1;exitX=0;exitY=0;exitDx=0;exitDy=0;exitPerimeter=0;" parent="1" source="K3sZLC655sDqHfrd9MnO-7" edge="1">
          <mxGeometry relative="1" as="geometry">
            <mxPoint x="400" y="90" as="targetPoint" />
            <mxPoint x="480" y="207" as="sourcePoint" />
          </mxGeometry>
        </mxCell>
        <mxCell id="K3sZLC655sDqHfrd9MnO-10" value="&lt;font face=&quot;helvetica&quot; style=&quot;font-size: 14px;&quot;&gt;Команды движения для роботов&lt;/font&gt;" style="shape=note;whiteSpace=wrap;html=1;rounded=0;shadow=0;comic=0;labelBackgroundColor=none;strokeWidth=1;fontFamily=Verdana;fontSize=14;align=center;size=10;" parent="1" vertex="1">
          <mxGeometry x="477.5" y="250" width="145" height="50" as="geometry" />
        </mxCell>
        <mxCell id="K3sZLC655sDqHfrd9MnO-14" style="edgeStyle=none;rounded=0;html=1;labelBackgroundColor=none;startArrow=none;startFill=0;startSize=5;endArrow=oval;endFill=0;endSize=5;jettySize=auto;orthogonalLoop=1;strokeWidth=1;fontFamily=Verdana;fontSize=14;dashed=1;exitX=0;exitY=0;exitDx=0;exitDy=0;exitPerimeter=0;jumpStyle=arc;jumpSize=11;" parent="1" source="K3sZLC655sDqHfrd9MnO-10" edge="1">
          <mxGeometry relative="1" as="geometry">
            <mxPoint x="390" y="170" as="targetPoint" />
            <mxPoint x="492.5" y="182" as="sourcePoint" />
          </mxGeometry>
        </mxCell>
        <mxCell id="K3sZLC655sDqHfrd9MnO-15" style="edgeStyle=none;rounded=0;html=1;labelBackgroundColor=none;startArrow=none;startFill=0;startSize=5;endArrow=oval;endFill=0;endSize=5;jettySize=auto;orthogonalLoop=1;strokeWidth=1;fontFamily=Verdana;fontSize=14;dashed=1;exitX=0;exitY=1;exitDx=0;exitDy=0;exitPerimeter=0;jumpStyle=arc;jumpSize=11;" parent="1" source="K3sZLC655sDqHfrd9MnO-10" edge="1">
          <mxGeometry relative="1" as="geometry">
            <mxPoint x="390" y="390" as="targetPoint" />
            <mxPoint x="487.5" y="260" as="sourcePoint" />
          </mxGeometry>
        </mxCell>
      </root>
    </mxGraphModel>
  </diagram>
</mxfile>
